<?xml version="1.0" standalone="no"?>
<!DOCTYPE svg PUBLIC "-//W3C//DTD SVG 1.1//EN" "http://www.w3.org/Graphics/SVG/1.1/DTD/svg11.dtd" >
<!--
2013-9-30: Created.
-->
<svg>
<metadata>
Created by iconfont
</metadata>
<defs>

<font id="iconfont" horiz-adv-x="1024" >
  <font-face
    font-family="iconfont"
    font-weight="500"
    font-stretch="normal"
    units-per-em="1024"
    ascent="896"
    descent="-128"
  />
    <missing-glyph />
    
    <glyph glyph-name="gonggao" unicode="&#58889;" d="M682.599 374.657c0 57.463-30.314 107.666-75.48 134.852l-36.385-60.164c25.481-14.698 42.702-42.616 42.702-74.688 0-40.257-27.214-74.013-63.855-83.169l40.452-60.503c54.443 23.953 92.566 79.26 92.566 143.672l0 0zM751.046 747.498l-36.336-60.08c103.388-64.076 172.471-180.174 172.471-312.764 0-136.096-72.792-254.825-180.746-317.76l39.121-58.507c126.08 75.797 210.709 215.905 210.709 376.228 0 157.982-82.179 296.345-205.22 372.884zM68.805 148.851l133.89 0 0 451.329-133.89 0 0-451.329zM820.84 374.657c0 108.219-56.51 202.959-141.012 255.087l-37.108-61.361c64.418-39.394 107.549-111.395 107.549-193.725 0-88.13-49.451-164.436-121.537-201.553l40.114-59.994c90.554 50.491 151.994 148.673 151.994 261.547zM238.707 149.418l272.257-177.832 0 806.665-272.257-177.549 0-451.284z"  horiz-adv-x="1024" />

    
    <glyph glyph-name="lingyi1" unicode="&#58897;" d="M981.333333 384c0 260.266667-209.066667 469.333333-469.333333 469.333333S42.666667 644.266667 42.666667 384c0-51.2 17.066667-102.4 42.666667-149.333333 0 0 0 4.266667 0 4.266667 0 29.866667 12.8 55.466667 38.4 68.266667 76.8 42.666667 200.533333-98.133333 226.133333-209.066667 8.533333-46.933333 12.8-93.866667 8.533333-136.533333C418.133333-68.266667 473.6-85.333333 512-85.333333c38.4 0 93.866667 21.333333 153.6 51.2-4.266667 38.4 0 89.6 8.533333 136.533333 25.6 110.933333 149.333333 251.733333 226.133333 209.066667 25.6-17.066667 38.4-38.4 38.4-68.266667 0 0 0 0 0 0C964.266667 285.866667 981.333333 337.066667 981.333333 384zM401.066667 409.6c-42.666667-64-115.2-93.866667-162.133333-59.733333s-55.466667 110.933333-17.066667 174.933333c42.666667 64 115.2 93.866667 162.133333 59.733333C435.2 554.666667 439.466667 473.6 401.066667 409.6zM597.333333 149.333333c0-46.933333-38.4-85.333333-85.333333-85.333333-46.933333 0-85.333333 38.4-85.333333 85.333333L426.666667 256c0 46.933333 38.4 85.333333 85.333333 85.333333 46.933333 0 85.333333-38.4 85.333333-85.333333L597.333333 149.333333zM789.333333 349.866667c-51.2-29.866667-123.733333-4.266667-162.133333 59.733333-42.666667 64-34.133333 140.8 17.066667 174.933333 51.2 29.866667 123.733333 4.266667 162.133333-59.733333C844.8 456.533333 836.266667 379.733333 789.333333 349.866667zM149.333333 273.066667c-21.333333-12.8-21.333333-25.6-4.266667-106.666667 8.533333-42.666667 17.066667-72.533333 17.066667-106.666667 0-25.6 0-46.933333 0-68.266667-4.266667-42.666667-4.266667-38.4 0-42.666667 0-4.266667 4.266667-4.266667 8.533333-8.533333 4.266667-4.266667 34.133333-12.8 72.533333-17.066667 34.133333 0 68.266667 0 76.8 4.266667 8.533333 4.266667 17.066667 93.866667 0 170.666667C290.133333 179.2 187.733333 294.4 149.333333 273.066667zM878.933333 273.066667c-42.666667 21.333333-145.066667-93.866667-162.133333-179.2-17.066667-72.533333-8.533333-162.133333 0-170.666667 4.266667-4.266667 42.666667-4.266667 76.8-4.266667 38.4 0 68.266667 8.533333 72.533333 17.066667 4.266667 4.266667 4.266667 8.533333 8.533333 8.533333 0 4.266667 0 0 0 42.666667 0 21.333333 0 42.666667 0 68.266667 0 34.133333 4.266667 64 17.066667 106.666667C904.533333 247.466667 904.533333 260.266667 878.933333 273.066667z"  horiz-adv-x="1024" />

    
    <glyph glyph-name="shujia" unicode="&#58942;" d="M736.68376 173.269531c4.564969-17.081027 22.152533-27.200502 39.23356-22.62837 17.076934 4.573155 27.231201 22.11467 22.650883 39.178301L670.037874 668.676621c-4.568039 17.063631-22.157649 27.182083-39.23356 22.62837-17.076934-4.573155-27.236318-22.119787-22.655999-39.183418L736.68376 173.269531 736.68376 173.269531zM543.156092 141.092691c17.686824 0 32.042787 14.33038 32.042787 31.985482L575.198879 556.888606c0 17.656125-14.355963 31.985482-32.042787 31.985482s-32.042787-14.329357-32.042787-31.985482l0-383.810433C511.114328 155.435351 525.455965 141.092691 543.156092 141.092691L543.156092 141.092691zM927.648047 253.039319c-17.686824 0-32.042787-14.31503-32.042787-31.986505l0-128.833227c-4.323469-30.318516-17.620309-43.095517-50.6731-47.081295L186.971857 45.138292c-41.346687 2.817162-56.247049 15.896038-60.364833 51.623751l0 124.290771c0 17.671475-14.354939 31.986505-32.03767 31.986505-17.687848 0-32.042787-14.31503-32.042787-31.986505l0-157.605527c0-44.629453 37.214577-82.277912 81.94636-82.277912l701.001585 0 0 0.030699 38.053688 0c42.021046 0 76.078723 20.74344 76.078723 62.690808l0 40.318264 0.079818 0L959.68674 221.053837C959.685717 238.741685 945.334871 253.039319 927.648047 253.039319L927.648047 253.039319zM286.831192 141.092691c17.682731 0 32.038694 14.33038 32.038694 31.985482L318.869886 764.785539c0 17.656125-14.355963 31.985482-32.038694 31.985482-17.687848 0-32.042787-14.329357-32.042787-31.985482l0-591.707366C254.787382 155.435351 269.126972 141.092691 286.831192 141.092691L286.831192 141.092691zM414.993131 141.092691c17.686824 0 32.038694 14.33038 32.038694 31.985482L447.031824 668.835234c0 17.657148-14.351869 31.981389-32.038694 31.981389-17.687848 0-32.042787-14.325263-32.042787-31.981389l0-495.757061C382.950344 155.435351 397.28891 141.092691 414.993131 141.092691L414.993131 141.092691zM414.993131 141.092691"  horiz-adv-x="1024" />

    
    <glyph glyph-name="dushi" unicode="&#58954;" d="M981.333333 810.666667 981.333333 853.333333 768 853.333333l0-42.666667-42.666667 0 0-469.333333-85.333333 0 0 128-42.666667 0 0 42.666667-128 0 0-42.666667-42.666667 0 0-256-85.333333 0L341.333333 554.666667l-85.333333 0 0 85.333333L0 725.333333l0-853.333333 1024 0L1024 810.666667 981.333333 810.666667zM85.333333 554.666667l85.333333 0 0-64L85.333333 490.666667 85.333333 554.666667zM256-21.333333 85.333333-21.333333l0 64 170.666667 0L256-21.333333zM256 320 192 320l0 64 64 0L256 320zM576 149.333333l-85.333333 0 0 64 85.333333 0L576 149.333333zM576 320l-85.333333 0 0 64 85.333333 0L576 320zM810.666667 725.333333l85.333333 0 0-64-85.333333 0L810.666667 725.333333zM938.666667-21.333333l-128 0 0 64 128 0L938.666667-21.333333zM938.666667 320l-64 0 0 64 64 0L938.666667 320z"  horiz-adv-x="1024" />

    
    <glyph glyph-name="qihuan" unicode="&#58956;" d="M977.066667 597.333333C832 885.333333 567.466667 866.133333 567.466667 866.133333L533.333333 896c0 0-10.666667-10.666667-21.333333-32 68.266667-38.4 83.2-258.133333-38.4-277.333333-14.933333 10.666667-23.466667 25.6-25.6 49.066667l6.4-4.266667 4.266667 12.8L448 657.066667c0 2.133333 0 6.4 0 8.533333l12.8-6.4 2.133333 17.066667L448 693.333333c0 4.266667-2.133333 8.533333-2.133333 10.666667l21.333333-6.4L467.2 714.666667l-32 21.333333c-2.133333 4.266667-4.266667 8.533333-6.4 10.666667L460.8 746.666667l-4.266667 12.8-57.6 27.733333L448 789.333333l-6.4 14.933333c0 0-42.666667 14.933333-91.733333 14.933333 8.533333 8.533333 23.466667 23.466667 51.2 32C403.2 868.266667 405.333333 883.2 405.333333 883.2s-57.6-10.666667-104.533333-34.133333C253.866667 827.733333 192 789.333333 200.533333 772.266667c-2.133333-10.666667-57.6-29.866667-64-42.666667s17.066667-23.466667 21.333333-59.733333C183.466667 682.666667 238.933333 725.333333 256 689.066667c27.733333-4.266667 104.533333 49.066667 102.4-19.2-2.133333-57.6-21.333333-89.6-21.333333-162.133333-12.8-29.866667-12.8-64-23.466667-61.866667-29.866667 25.6-49.066667 78.933333-49.066667 104.533333s19.2 55.466667 19.2 55.466667l-4.266667 6.4 4.266667 19.2-14.933333 14.933333-19.2-2.133333 12.8-6.4 2.133333-14.933333-8.533333-4.266667 0 12.8-8.533333 2.133333-12.8 17.066667-23.466667 4.266667-4.266667-8.533333 8.533333-2.133333 8.533333-14.933333-14.933333 4.266667-6.4-8.533333-6.4 6.4-14.933333 2.133333-23.466667-19.2L174.933333 618.666667l8.533333-4.266667c2.133333-14.933333 10.666667-10.666667 25.6-42.666667 17.066667-32 2.133333-57.6 2.133333-57.6l-14.933333-19.2 6.4-17.066667-8.533333-4.266667-19.2 2.133333 21.333333-17.066667 19.2 10.666667 4.266667-6.4 14.933333 27.733333c0 0 0 6.4 6.4-2.133333 12.8-81.066667 49.066667-110.933333 61.866667-123.733333C298.666667 352 277.333333 356.266667 277.333333 356.266667s10.666667-25.6 44.8-6.4c12.8 0 21.333333 6.4 27.733333 12.8 2.133333 2.133333 6.4 12.8 14.933333 19.2 34.133333-55.466667 87.466667-93.866667 100.266667-102.4 6.4-6.4 12.8-10.666667 17.066667-17.066667 0-21.333333 0-85.333333 27.733333-100.266667 34.133333-19.2-149.333333-78.933333-189.866667 19.2l-21.333333 23.466667L277.333333 206.933333l-8.533333-12.8 19.2-2.133333-36.266667-12.8-8.533333-23.466667 17.066667 6.4 10.666667-6.4L236.8 128l4.266667-27.733333 12.8 14.933333 6.4 0 2.133333-6.4 8.533333 0 10.666667 8.533333 25.6 0 32-25.6 0-32 6.4-8.533333L345.6 42.666667l-14.933333-14.933333 19.2-2.133333 17.066667 10.666667 4.266667 14.933333 6.4 10.666667 0 29.866667 2.133333 10.666667c0 0 19.2-19.2 87.466667-17.066667 68.266667 2.133333 93.866667 19.2 93.866667 19.2s12.8-19.2-2.133333-34.133333c25.6-10.666667 25.6 40.533333 25.6 40.533333s12.8 25.6 2.133333 38.4c-4.266667 12.8 2.133333 34.133333 14.933333 53.333333 21.333333-6.4 38.4-14.933333 55.466667-34.133333C704 108.8 640-53.333333 490.666667-53.333333c-277.333333 0-405.333333 234.666667-405.333333 309.333333 23.466667 0 53.333333-10.666667 53.333333-10.666667-21.333333 115.2-85.333333 138.666667-138.666667 138.666667 0-266.666667 224-512 490.666667-512 256 0 320 181.333333 320 320 0 85.333333-17.066667 121.6-53.333333 164.266667s21.333333 81.066667 42.666667 17.066667C896 341.333333 896 181.333333 832 55.466667c42.666667 29.866667 74.666667 72.533333 96 147.2 12.8 42.666667 32 32 32 0 0-25.6-10.666667-42.666667-10.666667-42.666667C1002.666667 192 1068.8 416 977.066667 597.333333zM226.133333 759.466667c-10.666667 14.933333 36.266667 23.466667 36.266667 23.466667S236.8 744.533333 226.133333 759.466667z"  horiz-adv-x="1024" />

    
    <glyph glyph-name="hongbao" unicode="&#59124;" d="M416 264.32c-17.92 0-32-14.08-32-32s14.08-32 32-32l64 0L480 121.6c0-17.92 14.08-32 32-32s32 14.08 32 32l0 78.72 64 0c17.92 0 32 14.08 32 32s-14.08 32-32 32L544 264.32l0 24.32 64 0c17.92 0 32 14.08 32 32s-14.08 32-32 32l-44.16 0 66.56 66.56c12.8 12.8 12.8 32.64 0 45.44-12.8 12.8-32.64 12.8-45.44 0L512 391.04 438.4 464c-12.8 12.8-32.64 12.8-45.44 0-12.8-12.8-12.8-32.64 0-45.44l66.56-66.56L416 352c-17.92 0-32-14.08-32-32s14.08-32 32-32l64 0 0-24.32L416 263.68zM755.2 768 268.8 768c-42.24 0-76.8-34.56-76.8-76.8l0-88.96c0-7.68 5.12-15.36 12.8-17.92L506.24 492.8c1.92-0.64 3.84-1.28 5.76-1.28s3.84 0.64 5.76 1.28L819.2 584.32c7.68 2.56 12.8 9.6 12.8 17.92L832 691.2C832 733.44 797.44 768 755.2 768zM768 635.52 512 558.08 256 635.52 256 691.2c0 7.04 5.76 12.8 12.8 12.8l486.4 0c7.04 0 12.8-5.76 12.8-12.8L768 635.52zM800 544c-17.92 0-32-14.08-32-32l0-403.2c0-24.96-19.84-44.8-44.8-44.8L300.8 64c-24.96 0-44.8 19.84-44.8 44.8L256 512c0 17.92-14.08 32-32 32s-32-14.08-32-32l0-403.2c0-60.16 48.64-108.8 108.8-108.8l422.4 0c60.16 0 108.8 48.64 108.8 108.8L832 512C832 529.92 817.92 544 800 544z"  horiz-adv-x="1024" />

    
    <glyph glyph-name="renminbi" unicode="&#58900;" d="M511.949858 829.787996 511.949858 829.787996c-247.534699 0-448.200952-200.661136-448.200952-448.200952 0-247.538793 200.666252-448.199928 448.200952-448.199928 247.538793 0 448.199928 200.661136 448.199928 448.199928C960.149786 629.12686 759.488651 829.787996 511.949858 829.787996L511.949858 829.787996zM511.949858-9.403928 511.949858-9.403928c-215.889979 0-390.969483 175.033455-390.969483 390.990972 0 215.935004 175.079504 390.969483 390.969483 390.969483 215.935004 0 390.973576-175.034479 390.973576-390.969483C902.923434 165.629527 727.884862-9.403928 511.949858-9.403928L511.949858-9.403928zM733.810828 313.09409 544.242332 313.09409 544.242332 408.463158l189.568497 0c10.504238 0 19.039635 8.534374 19.039635 19.061125l0 19.039635c0 10.591219-8.535397 19.125593-19.039635 19.125593l-98.31005 0 57.168024 96.644107c4.15667 6.955412-0.045025 16.893762-9.324366 22.147416l-16.806781 9.405207c-9.302877 5.27719-20.178575 3.834328-24.335245-3.1262l-73.969689-125.116579L463.058334 465.643462l-74.011644 125.116579c-4.069689 6.956436-14.992459 8.402367-24.293289 3.1262l-16.807804-9.405207c-9.278317-5.254677-13.481036-15.186887-9.365298-22.147416l57.20384-96.644107-98.259908 0c-10.55438 0-19.084661-8.535397-19.084661-19.125593l0-19.039635c0-10.527774 8.535397-19.061125 19.084661-19.061125l189.518355 0 0-95.370091L297.525254 313.093067c-10.55438 0-19.084661-8.535397-19.084661-19.084661l0-19.062148c0-10.526751 8.535397-19.062148 19.084661-19.062148l189.518355 0 0-95.373161c0-10.531867 8.535397-19.062148 19.039635-19.062148l19.125593 0c10.504238 0 19.039635 8.535397 19.039635 19.062148l0 95.373161 189.562357 0c10.504238 0 19.039635 8.535397 19.039635 19.062148l0 19.062148C752.850463 304.558693 744.315066 313.09409 733.810828 313.09409L733.810828 313.09409z"  horiz-adv-x="1024" />

    
    <glyph glyph-name="wenhao" unicode="&#58974;" d="M512 829.971168c-246.311849 0-445.971168-199.62555-445.971168-445.971168S265.688151-61.971168 512-61.971168c246.310825 0 445.970144 199.658296 445.970144 445.971168S758.345618 829.971168 512 829.971168L512 829.971168zM512-0.359948c-212.235752 0-384.359948 172.123172-384.359948 384.359948S299.764248 768.359948 512 768.359948 896.358925 596.236775 896.358925 384 724.235752-0.359948 512-0.359948L512-0.359948zM474.90515 201.077877l67.849294 0 0-71.406307-67.849294 0L474.90515 201.077877 474.90515 201.077877zM664.569838 501.152187c0-18.714224-3.554966-35.516912-10.79895-50.677193-7.245008-15.159258-22.638603-34.108842-46.25037-56.714699-23.478737-22.605857-39.207977-38.772049-46.88789-48.229444-7.713682-9.592472-13.484106-20.928658-17.506722-34.311457-3.991917-13.248745-5.668093-31.05632-5.232165-53.461609l-61.510936 0c0 26.060539 2.079358 47.021943 6.339382 62.618153 4.259 15.595186 10.498098 29.312606 18.949584 40.884153 8.350179 11.7056 23.511483 28.743648 45.445028 51.482535 21.934568 22.639626 35.987632 39.105646 42.325991 49.370431 6.339382 10.228969 9.459442 25.489534 9.459442 45.780673 0 20.291139-7.245008 38.233789-21.734 53.931307-14.488992 15.59621-35.45142 23.410176-62.952774 23.410176-62.08194 0-93.037976-36.859489-93.037976-110.511953l-61.711504 0c0.871857 33.472346 4.89652 59.063187 11.906168 76.537164 7.009647 17.473977 18.178011 33.070186 33.539884 46.88789 15.394618 13.71742 32.532951 23.946388 51.482535 30.419823 18.949584 6.573719 38.872333 9.79304 59.83476 9.79304 42.459021 0 77.777411-12.477172 105.950054-37.429471C650.382721 575.978383 664.536069 542.774143 664.569838 501.152187L664.569838 501.152187z"  horiz-adv-x="1024" />

    
    <glyph glyph-name="wuxia" unicode="&#58883;" d="M1024 618.666667c0 12.8-8.533333 25.6-19.2 29.866666L597.333333 853.333333c0 23.466667-19.2 42.666667-42.666666 42.666667h-85.333334c-23.466667 0-42.666667-19.2-42.666666-42.666667L19.2 648.533333c-10.666667-4.266667-19.2-17.066667-19.2-29.866666v-21.333334s25.6-25.6 85.333333-53.333333V469.333333l85.333334-42.666666v87.466666c34.133333-10.666667 72.533333-19.2 119.466666-27.733333 19.2-55.466667 49.066667-106.666667 87.466667-142.933333-160-46.933333-273.066667-177.066667-273.066667-326.4 0-192 817.066667-192 817.066667 0 0 104.533333-55.466667 198.4-140.8 262.4 76.8 44.8 140.8 96.533333 243.2 105.066666L966.4 424.533333l17.066667 38.4c-147.2-19.2-181.333333-85.333333-290.133334-134.4-14.933333 6.4-29.866667 10.666667-44.8 14.933334 38.4 36.266667 68.266667 87.466667 87.466667 142.933333C947.2 520.533333 1024 597.333333 1024 597.333333v21.333334z m-512-149.333334c42.666667 0 83.2 2.133333 119.466667 4.266667-8.533333-21.333333-17.066667-36.266667-17.066667-36.266667s-59.733333-27.733333-104.533333-27.733333c-44.8 0-102.4 25.6-102.4 25.6s-8.533333 14.933333-17.066667 38.4c38.4-2.133333 78.933333-4.266667 121.6-4.266667zM187.733333 14.933333c0 42.666667 12.8 81.066667 34.133334 117.333334 57.6-70.4 142.933333-145.066667 288-177.066667-44.8-4.266667-247.466667 19.2-322.133334 59.733333zM814.933333 106.666667c12.8-27.733333 21.333333-59.733333 21.333334-91.733334 0 2.133333-66.133333-14.933333-185.6 0s-185.6 53.333333-185.6 53.333334 151.466667-4.266667 349.866666 38.4z m-125.866666 128c27.733333-14.933333 51.2-32 72.533333-53.333334-145.066667-32-388.266667-8.533333-460.8 32 27.733333 19.2 57.6 34.133333 91.733333 44.8 147.2-55.466667 258.133333-38.4 296.533334-23.466666z"  horiz-adv-x="1024" />

    
    <glyph glyph-name="qianbao" unicode="&#58965;" d="M875.987 605.978v195.994c0 15.456-6.608 24.080-21 29.736-11.088 4.369-21.868 1.764-34.999-1.736l-727.974-223.992v-615.979c0-30.91 25.059-56 55.998-56h727.974c30.939 0 55.998 25.088 55.998 56v559.98c0 30.91-25.059 55.998-55.998 55.998zM819.99 773.973v-167.994h-545.981l545.981 167.994zM875.987 241.989v-27.999h-111.998v55.998h111.998v-27.999zM875.987 325.987h-139.995c-15.456 0-27.999-12.547-27.999-27.999v-111.997c0-15.457 12.545-27.999 27.999-27.999h139.995v-139.995c0-15.458-12.545-27.999-27.999-27.999h-671.977c-15.456 0-27.999 12.543-27.999 27.999v531.982h699.976c15.456 0 27.999-12.516 27.999-27.999v-195.994z"  horiz-adv-x="1024" />

    
    <glyph glyph-name="kehuan" unicode="&#58936;" d="M1011.712 665.6c-34.304 59.904-132.096 72.704-256 47.104-72.704 59.904-162.304 98.304-264.704 98.304-221.696 0-405.504-183.296-405.504-405.504 0-25.6 4.096-55.296 8.704-80.896-80.896-93.696-115.2-179.2-80.896-234.496 34.304-64 144.896-72.704 281.6-38.4 59.904-29.696 123.904-51.2 196.096-51.2 217.6 0 396.8 175.104 405.504 392.704 102.4 105.984 153.6 208.384 115.2 272.384zM725.504 554.496C751.104 554.496 768 537.6 768 512s-16.896-42.496-42.496-42.496S683.008 486.4 683.008 512s16.896 42.496 42.496 42.496zM491.008 512c34.304 0 64-29.696 64-64s-29.696-64-64-64-64 29.696-64 64 29.696 64 64 64z m-85.504 170.496c12.8 0 21.504-8.704 21.504-21.504s-8.704-21.504-21.504-21.504S384 648.192 384 660.992s8.704 21.504 21.504 21.504z m-192-212.992c25.6 0 42.496-16.896 42.496-42.496s-16.896-42.496-42.496-42.496-42.496 16.896-42.496 42.496 16.896 42.496 42.496 42.496z m491.008-299.008c-21.504 0-42.496 12.8-55.296 29.696 38.4 21.504 72.704 47.104 106.496 72.704 8.704-8.704 12.8-25.6 12.8-38.4 0-33.792-30.208-64-64-64z m-123.904 94.208C320.512 115.2 115.712 94.208 85.504 149.504c-12.8 21.504 0 59.904 29.696 111.104 12.8-34.304 29.696-64 51.2-89.6 42.496 4.096 93.696 16.896 153.6 38.4-12.8 8.704-21.504 25.6-21.504 47.104 0 47.104 38.4 85.504 85.504 85.504 42.496 0 76.8-29.696 85.504-72.704 21.504 12.8 42.496 25.6 68.096 38.4 162.304 93.696 272.896 196.096 320 272.896-12.8 29.696-29.696 59.904-51.2 85.504 64 4.096 111.104-4.096 123.904-25.6 30.208-60.416-89.6-226.816-349.696-375.808z"  horiz-adv-x="1025" />

    
    <glyph glyph-name="renwu" unicode="&#58891;" d="M840.703478 761.050794h-32.767977a67.80338 67.80338 0 0 1-68.022808 66.047952h-58.66053V828.707888A67.80338 67.80338 0 0 1 613.156212 895.999269H414.13464a67.80338 67.80338 0 0 1-68.095952-67.291381l-61.878813-1.609142a67.80338 67.80338 0 0 1-68.095951-66.047952h-32.767977C142.628548 761.050794 109.714286 728.502245 109.714286 688.346845v-743.642897c0-40.082257 32.987405-72.703948 73.581661-72.703948h657.407531c40.594257 0 73.581662 32.621691 73.581662 72.703948V688.273703c0 40.1554-32.987405 72.703948-73.581662 72.703948z m-559.761886-1.243428c0 1.755427 1.462856 3.145141 3.218283 3.14514h94.354219a32.255977 32.255977 0 0 1 32.402262 32.109692V828.707888c0 1.682285 1.462856 3.145141 3.218284 3.145141h198.948429c1.82857 0 3.218283-1.462856 3.218283-3.145141v-33.64569c0-17.773702 14.555418-32.182834 32.475406-32.182834h91.135935c1.755427 0 3.145141-1.31657 3.14514-3.071998v-79.213658c0-1.755427-1.462856-3.145141-3.14514-3.14514H284.159875a3.145141 3.145141 0 0 0-3.218283 3.14514V759.807366z m568.392737-815.103418a8.557708 8.557708 0 0 0-8.630851-8.557708H183.295947a8.557708 8.557708 0 0 0-8.630851 8.557708V688.273703c0 4.754282 3.876569 8.557708 8.630851 8.557708h32.694834v-16.310846c0-37.156545 30.573692-67.291381 68.169094-67.29138h455.679675a67.80338 67.80338 0 0 1 68.169094 67.29138v16.310846h32.694834c4.754282 0 8.630851-3.803426 8.630851-8.557708v-743.642898zM523.117419 168.155217H337.627266a32.32912 32.32912 0 0 1-32.475406-32.182834c0-17.700559 14.555418-32.182834 32.475406-32.182834h185.490153a32.32912 32.32912 0 0 1 32.548548 32.182834 32.32912 32.32912 0 0 1-32.548548 32.182834z m169.691307 173.860447H337.700409a32.32912 32.32912 0 0 1-32.475406-32.182834c0-17.700559 14.555418-32.109691 32.475406-32.109691h355.254603a32.32912 32.32912 0 0 1 32.475405 32.182834 32.32912 32.32912 0 0 1-32.475405 32.182834z m0 167.570166H337.700409a32.32912 32.32912 0 0 1-32.475406-32.182834c0-17.700559 14.555418-32.109691 32.475406-32.109691h355.254603a32.32912 32.32912 0 0 1 32.475405 32.182834 32.32912 32.32912 0 0 1-32.475405 32.109691z"  horiz-adv-x="1024" />

    
    <glyph glyph-name="anquan" unicode="&#58892;" d="M512.434742-128c-77.620477 0-182.706507 54.336826-274.06325 141.510669C138.064637 109.045328 80.743443 221.298626 80.743443 320.406948V727.622046c0 14.926823 11.940461 27.470539 26.866287 27.47054l40.006279 0.595278c3.579646 0 87.172846 2.38211 173.155135 37.616192 90.75648 36.418656 151.063038 79.411297 151.65732 80.005578l23.890893 17.315912C501.089559 894.204195 506.464013 896 512.434742 896c5.970729 0 11.34618-1.795805 16.118377-5.375451l23.888899-17.315912c2.389089-1.787829 60.902834-43.586921 151.061044-80.005578 85.976307-35.234083 169.569507-37.616192 173.149153-37.616192l40.006279-0.595278c14.925826 0 26.873267-12.543716 26.873267-27.47054V320.414925c0-99.719553-57.321194-211.369597-157.634032-306.904256-90.15821-87.767127-195.244241-141.510669-273.462987-141.510669zM136.270826 319.81865c0-84.188478 51.351462-181.515951 140.312136-266.897977 78.821004-75.232384 173.757393-125.989565 235.850783-125.989566 62.094387 0 157.03277 50.756184 235.846795 125.989566 89.562932 85.382026 140.312136 182.701522 140.312136 266.897977v380.339837h-13.132014c-4.183898 0-97.923748 2.984367-192.862132 41.792113-94.335128 38.212467-155.84022 81.800386-162.406227 86.579562l-7.758558 5.970729-7.762546-5.970729c-2.389089-1.787829-65.683007-47.168561-162.408221-86.579562-95.533661-38.807746-189.279494-41.195838-192.860137-41.792113h-13.138995v-380.339837h0.00698z m0 0M464.069642 241.004625c-8.360816 0-16.117379 2.976391-22.095088 8.9541L321.368417 371.164129c-5.970729 5.969732-8.956094 13.732278-8.956094 22.094091 0 8.357824 2.986362 16.122365 8.956094 22.095088 5.970729 5.970729 13.733275 8.9541 22.093094 8.9541 8.360816 0 16.117379-2.98337 22.088108-8.9541l98.520023-98.520023 219.133141 219.12616c5.970729 5.970729 13.734273 8.962076 22.095088 8.962077 8.352839 0 16.117379-2.984367 22.087111-8.962077 11.941458-11.940461 11.941458-32.241738 0-44.182199L486.163733 250.554003c-5.968735-5.969732-13.73527-9.549378-22.094091-9.549378z m0 0"  horiz-adv-x="1024" />

    
    <glyph glyph-name="fire_1" unicode="&#58881;" d="M336-76.79999999999995c-60.8 128-28.8 201.6 19.2 268.8 51.2 76.8 64 150.4 64 150.4s41.6-51.2 25.6-134.4c70.4 80 83.2 208 73.6 256 160-112 230.4-358.4 137.6-537.6 492.8 281.6 121.6 700.8 57.6 745.6 22.4-48 25.6-128-19.2-166.4-73.6 281.6-256 336-256 336 22.4-144-76.8-300.8-172.8-419.2-3.2 57.6-6.4 96-38.4 153.6-6.4-105.6-86.4-188.8-108.8-294.4C89.6 137.60000000000002 140.8 35.200000000000045 336-76.79999999999995L336-76.79999999999995z"  horiz-adv-x="1024" />

    
    <glyph glyph-name="huizhang" unicode="&#58953;" d="M502.369 321.854c99.22 0 179.955 80.724 179.955 179.955s-80.735 179.938-179.955 179.938c-99.199 0-179.933-80.702-179.933-179.933s80.734-179.96 179.933-179.96z m0 308.493c70.872 0 128.528-57.645 128.528-128.538 0-70.883-57.662-128.556-128.528-128.556-70.888 0-128.539 57.673-128.539 128.56 0 70.889 57.651 128.534 128.539 128.534z m247.442-337.251c55.376 65.584 85.326 153.309 74.132 247.867C806.508 688.856 687.352 807.16 539.405 823.668c-195.152 21.725-360.97-131.061-360.97-321.86 0-80.626 29.706-154.43 78.643-211.16L155.416 105.71c-3.789-6.84 1.202-15.225 9.017-15.225h119.339a20.496 20.496 0 0 0 17.133-9.26l70.338-107.762c4.21-6.44 13.706-6.165 17.559 0.475L504.11 175.002l115.36-201.033c3.795-6.672 13.286-6.947 17.49-0.507l70.407 107.763a20.48 20.48 0 0 0 17.08 9.264h119.387c7.82 0 12.757 8.38 9.033 15.22L749.811 293.096z m-283.034 478.93c178.057 22.711 328.488-127.747 305.831-305.82-15.506-121.587-113.082-219.163-234.652-234.636C359.882 208.9 209.467 359.354 232.13 537.374c15.516 121.602 113.017 219.163 234.647 234.652z m-93.67-707.406l-44.365 68.01a20.437 20.437 0 0 1-17.128 9.264h-66.555a6.543 6.543 0 0 0-5.734 9.701l55.824 101.516a322.56 322.56 0 0 1 153.907-70.774l-67.368-117.459a5.028 5.028 0 0 0-8.57-0.258z m306.43 68.01l-44.425-68.016a4.97 4.97 0 0 0-8.505 0.27L558.888 182.95a322.749 322.749 0 0 1 153.115 72.219l58.207-105.865a4.996 4.996 0 0 0-4.404-7.41h-69.114a20.458 20.458 0 0 1-17.15-9.27z"  horiz-adv-x="1024" />

    
    <glyph glyph-name="sousuo" unicode="&#58933;" d="M932.352-37.888c-32.768-32.768-85.504-32.768-118.272 0l-147.456 148.48c-60.416-38.912-132.096-62.464-209.92-62.464C241.152 48.128 66.56 223.744 66.56 440.32s174.592 392.192 390.144 392.192 390.144-175.616 390.144-392.192c0-77.824-23.04-150.016-61.952-210.944l147.456-148.48c32.256-32.768 32.256-85.504 0-118.784zM456.704 720.896c-153.6 0-278.528-125.44-278.528-280.064 0-154.624 124.928-280.064 278.528-280.064s278.528 125.44 278.528 280.064c0 154.624-124.416 280.064-278.528 280.064z"  horiz-adv-x="1024" />

    
    <glyph glyph-name="gangbijian" unicode="&#59788;" d="M464.611556 701.781333l43.605333 85.560889a56.888889 56.888889 0 0 0 90.908444 14.392889L936.391111 464.440889a56.888889 56.888889 0 0 0-14.421333-90.908445l-85.304889-43.463111-91.704889-178.915555a56.888889 56.888889 0 0 0-32.824889-28.074667L100.579556-78.36444400000005c-11.178667-4.323556-26.510222-2.787556-36.721778 7.424a34.133333 34.133333 0 0 0-6.997334 37.944888l201.073778 610.332445a56.888889 56.888889 0 0 0 28.046222 32.796444l178.631112 91.648z m-35.271112-447.459555l-245.248-245.248 510.293334 168.163555 82.858666 161.450667L473.514667 642.389333l-161.422223-82.858666-168.106666-510.094223 245.105778 245.105778a85.361778 85.361778 0 1 0 40.248888-40.220444z m87.978667 425.585778l297.244445-297.244445 81.066666 41.272889L558.620444 760.945778l-41.301333-81.066667zM446.008889 311.182222a28.444444 28.444444 0 1 1 40.220444 40.248889 28.444444 28.444444 0 0 1-40.220444-40.248889z"  horiz-adv-x="1024" />

    
    <glyph glyph-name="lingyi" unicode="&#58882;" d="M150.242 191.75199999999995c-10.336-82.688-2.067-146.77 10.336-159.174 12.403-12.403 74.419-20.672 159.174-10.336-22.74 35.142-43.411 70.285-59.949 109.561-37.21 16.538-74.419 37.21-109.56 59.949zM873.758 576.248c10.336 82.688 2.067 146.77-10.336 159.174-12.403 12.403-74.419 20.672-159.174 10.336 22.74-35.142 43.411-70.285 59.949-109.561 37.21-16.538 74.419-37.21 109.56-59.949zM315.617 109.06399999999996c70.285-134.367 169.51-221.189 196.383-221.189 16.538 0 68.217 39.277 119.897 103.36-86.822 18.604-169.51 49.612-241.861 95.09-24.806 6.202-49.613 14.47-74.419 22.74zM708.383 658.936C638.098 793.303 538.873 880.125 512 880.125c-16.538 0-68.217-39.277-119.897-103.36 86.822-18.604 169.51-49.612 241.861-95.09 24.806-6.202 49.613-14.47 74.419-22.74zM512 694.078h8.269c-167.442 70.284-339.019 62.016-359.69 41.344-12.404-12.403-20.673-74.419-10.337-159.174 109.561 74.42 235.66 117.83 361.758 117.83zM512 73.92200000000003h-8.269c165.375-70.284 336.952-62.016 357.624-41.344 12.403 12.403 20.672 74.419 10.336 159.174-107.494-74.42-233.593-117.83-359.691-117.83zM512 652.734c-274.936 0-496.125-227.39-496.125-268.734S237.065 115.26599999999996 512 115.26599999999996 1008.125 342.65599999999995 1008.125 384 786.935 652.734 512 652.734z m0-496.125c-126.098 0-227.39 101.293-227.39 227.391S385.901 611.39 512 611.39 739.39 510.099 739.39 384 638.099 156.61 512 156.61zM512 611.39S429.313 497.696 429.313 384 512 156.61 512 156.61 594.687 270.304 594.687 384 512 611.39 512 611.39z"  horiz-adv-x="1024" />

    
    <glyph glyph-name="xianshi" unicode="&#58884;" d="M572.44444467 594.6666666599999l45.333333-200.888889q-5.333333-17.777778-18.666667-53.777778t-18.666666-52.888889q-25.777778-65.777778-64.88888899-144-23.111111 45.333333-33.77777802 72-20.444444 40.888889-31.11111099 75.555556-15.111111 38.222222-18.666667 53.333333-3.555556 9.777778-9.333333 26.666667t-9.333333 26.666667l45.333333 200.888889L572.44444467 598.2222226599999l0-3.555556zM746.66666667 775.99999966Q847.99999968 718.2222226599999 909.33333367 613.77777765T970.66666667 385.77777766Q970.66666667 228.44444466000004 875.55555567 107.55555565999998t-242.666667-161.777778l-18.666666 23.111111q-25.777778 30.222222-68.444445 109.333334 49.777778 96 92.88888899 206.222222t75.55555601 245.777778T746.66666667 775.99999966z m-174.222222-144l-113.777778 0-45.333333 118.222223q-6.222222 13.333333-0.888889 30.666666T431.99999967 807.11111066l41.77777799 33.777778 83.55555601 0 41.777777-33.777778q10.666667-8.888889 16-25.777777t2.666667-31.111111z m-288 144q-0.88888899-93.333333 21.333333-204.444444t56-208.444445 74.222222-188.444444 74.666667-152T568.88888867-69.33333333999997l-53.333333 0q-122.666667 0-227.555556 61.333333t-166.222222 166.222223-61.333333 227.555555q0 123.555556 61.333333 228T284.44444467 775.99999966z"  horiz-adv-x="1024" />

    
    <glyph glyph-name="youxi" unicode="&#58885;" d="M173.477052 131.60997217l-56.08538086-56.08538086c-36.05627197-36.05627197-84.13097827-170.26389844-84.13097827-170.26389844s134.20762646 50.07761719 170.26292944 84.13000928l46.07082642 46.07082642c-32.04948121 30.04657031-58.08926074 62.09605151-76.11739673 96.1484436zM804.45212158 716.51324634c18.02716699-6.00873266 36.05530298-12.01843433 52.07955908-18.02813599 10.01552344-2.00291089 16.0252251-4.00582178 20.03104688-6.00873266h2.00291089l34.05336108 34.05239209 14.02134522-14.02134521c8.01261255-8.01261255 20.03104688-8.01261255 28.04269043 0l28.04365942 28.04269043c8.01261255 8.01358154 8.01261255 20.03104688 0 28.04365941l-84.13000927 84.13000928c-8.01261255 8.01261255-20.03104688 8.01261255-28.04269044 0l-28.04365942-28.04269043c-8.01261255-8.01358154-8.01261255-20.03201586 0-28.04365942l12.01843433-12.01843433-62.09605152-64.0989624c4.00679077 0 8.01261255-2.00387988 12.01843433-4.00679077zM69.31696484 712.50742457c8.01164355-8.01261255 20.03007788-8.01261255 28.04269043-1e-8l14.02134522 14.02134521 34.05336109-34.05239209h2.00291088c4.00582178 0 10.01552344 2.00291089 20.03104688 6.00873267 16.0242561 6.00970166 34.05239209 12.01940332 52.08052808 18.02813598 4.00582178 2.00291089 8.01164355 4.00679077 12.01843432 4.00679078l-62.09605151 64.0989624 14.02134521 14.02134522c8.01261255 8.01261255 8.01261255 20.03104688 0 28.04269043l-28.04269043 28.04365942c-8.01358154 8.01261255-20.03104688 8.01261255-28.04365942 0L41.27233643 768.59377441c-8.01164355-8.01261255-8.01164355-20.03104688 0-28.04269043l28.04462841-28.04365942zM904.60638696 75.52362231999996l-56.08634985 56.08634985c-18.02813599-34.05239209-44.06888453-66.1018733-74.11448584-94.14456372l46.07082641-46.07179541c36.05627197-36.05627197 170.26196045-84.13000928 170.26196045-84.13000928s-50.0766482 132.20471558-86.13195117 168.26001856zM822.47928857 646.4055512699999c-12.01843433 4.00582178-26.03977955 8.01164355-40.06209375 14.02134521-56.08538086 20.03104688-112.17269971 44.06791553-166.25613867 72.11157495C578.1018733 752.56854932 542.04657031 774.60153809 512 798.64034473c-32.04948121-24.03686865-66.1018733-46.07179541-104.16105615-66.1018733-54.08343896-28.04365942-110.16978881-52.08052808-166.25613867-72.11254394-14.02134521-4.00582178-26.04074854-10.01455445-40.06209375-14.02134522V261.81274585000006c0-94.14553271 58.08926074-172.26680932 156.24061523-236.36577173 36.05627197-24.03686865 76.11836572-42.06403564 116.17949048-58.08926074 14.02134521-6.00970166 26.04074854-10.01552344 38.05918286-14.02134522 12.01843433 4.00582178 24.03686865 8.01164355 38.05918287 14.02134522 40.06112476 16.0252251 78.12030762 36.05627197 116.17852148 58.08926074 100.15523438 64.0989624 156.24158423 142.21927002 156.24158422 236.36577173v384.59377441zM672.24740601 484.15426538H411.84573462v-220.33957763C411.84476562 235.77199730999996 512 183.68953124999996 512 183.68953124999996s100.15523438 52.08052808 100.15523438 80.1241875v100.15523438h-70.10866407v-60.09314063h-60.09314062v120.18434326h190.29397632V263.81565674C672.24740601 183.68953124999996 512 115.58571606999999 512 115.58571606999999S351.75259399 183.68953124999996 351.75259399 263.81468773999995V544.2474060100001h320.49481202v-60.09314063z"  horiz-adv-x="1024" />

    
    <glyph glyph-name="guanzhu" unicode="&#58880;" d="M892.726 116.475H768.804v-123.923a28.597 28.597 0 1 0-57.196 0V116.475H587.686a28.598 28.598 0 0 0 0 57.195h123.922V297.593c0 15.794 12.804 28.597 28.599 28.597 15.793 0 28.597-12.803 28.597-28.597V173.67h123.922c15.794 0 28.598-12.803 28.598-28.597s-12.804-28.598-28.598-28.598z m-390.833 190.65c-5.261-5.833-10.524 0-19.065 0-143.254 0-323.933-137.363-323.933-300.063-0.094-15.788-12.964-28.51-28.75-28.427a28.596 28.596 0 0 0-28.769 28.427c0 134.446 112.311 286.852 270.666 335.048-75.708 42.267-117.994 120.777-117.994 212.861 0 136.048 110.234 247.845 247.845 247.845S749.74 691.019 749.74 554.971c0-135.324-111.244-246.663-247.846-247.846z m0 438.495c-105.696 0-190.65-86.154-190.65-190.649 0-104.496 84.954-190.65 190.65-190.65 105.697 0 190.65 86.154 190.65 190.65 0 104.495-84.953 190.65-190.65 190.65z"  horiz-adv-x="1024" />

    
    <glyph glyph-name="xianxiaqiyuankaobei" unicode="&#59112;" d="M499.240107-36.224a172.16 172.16 0 0 0 119.466666 209.066667V384s0 21.333333 42.666667 21.333333c0 21.333333-10.666667 42.666667-64 42.666667-21.333333 31.957333 0 64 42.666667 64a68.522667 68.522667 0 0 0 74.581333-42.666667s74.581333 42.666667 74.581333 106.666667c-64-42.666667-106.666667 42.666667-159.829333 42.666667a81.578667 81.578667 0 0 1-53.290667-21.333334 20.864 20.864 0 0 0-21.333333 21.333334V821.333333a39.466667 39.466667 0 0 0 21.333333 32s0 42.666667-64 42.666667-64-42.666667-64-42.666667a39.466667 39.466667 0 0 0 21.333334-32V618.666667a20.906667 20.906667 0 0 0-21.333334-21.333334 81.408 81.408 0 0 1-53.248 21.333334c-53.290667 0-95.914667-85.333333-159.872-42.666667 0-64 74.581333-106.666667 74.581334-106.666667A68.565333 68.565333 0 0 0 384.040107 512c42.666667 0 64-32 42.666666-64-53.290667 0-64-21.333333-64-42.666667 42.666667 0 42.666667-21.333333 42.666667-21.333333v-512h155.605333a164.906667 164.906667 0 0 0-61.824 91.733333zM469.37344 533.333333a42.666667 42.666667 0 1 0 42.666667-42.666666 42.666667 42.666667 0 0 0-42.666667 42.666666z m498.688-177.024A388.864 388.864 0 0 1 850.856107 546.133333c2.133333-6.357333 4.266667-12.8 6.4-21.333333a321.962667 321.962667 0 0 0-225.92-392.533333 127.018667 127.018667 0 0 1 66.048-245.290667 381.525333 381.525333 0 0 1 270.592 469.333333zM251.77344 388.266667a159.104 159.104 0 0 0-59.733333 217.6 266.496 266.496 0 0 0 19.2 25.6A232.490667 232.490667 0 0 1 72.70144 526.933333a223.274667 223.274667 0 0 1 81.066667-305.024A96.597333 96.597333 0 0 1 251.77344 388.266667z"  horiz-adv-x="1024" />

    
    <glyph glyph-name="V" unicode="&#58887;" d="M1263.376623 896v-29.090909a223.584416 223.584416 0 0 1-114.701298-25.766234 391.480519 391.480519 0 0 1-60.675325-115.532467L748.051948-128H534.441558l-373.194805 831.168831A444.675325 444.675325 0 0 1 83.116883 836.987013a117.194805 117.194805 0 0 1-83.116883 29.922078V896h581.818182v-29.090909a625.87013 625.87013 0 0 1-128.831169-9.974026c-15.792208-6.649351-24.103896-21.61039-24.103896-46.545455a239.376623 239.376623 0 0 1 24.935065-77.298701q26.597403-56.519481 37.402597-83.116883l229.402598-514.493507 223.584415 556.883117 19.948052 59.012987a182.857143 182.857143 0 0 1 9.142857 45.714286 55.688312 55.688312 0 0 1-29.090909 56.519481A626.701299 626.701299 0 0 1 804.571429 866.909091V896z"  horiz-adv-x="1263" />

    
    <glyph glyph-name="junshi" unicode="&#58886;" d="M512 802.0992c117.0432 0 221.5936-45.9776 296.8576-125.44h108.7488C829.7472 802.0992 679.2192 885.76 512 885.76S194.2528 802.0992 106.3936 676.6592h108.7488C290.4064 756.1216 394.9568 802.0992 512 802.0992zM967.7824 450.8672l-4.1984-12.4928-33.4848-62.7712c-4.1984-133.8368-66.8672-250.88-167.2192-321.9456v83.6608l83.6608 167.2192H762.88v41.7792h104.5504l62.7712 125.44H762.88v37.6832h188.2112L1013.76 634.88H762.88s-87.8592 62.7712-250.88 62.7712c-163.1232 0-250.88-62.7712-250.88-62.7712H10.24l62.7712-125.44H261.12v-41.7792H93.9008L156.672 342.2208h104.448v-41.7792h-83.6608L261.12 133.12v-83.6608C160.768 124.7232 98.0992 241.8688 93.9008 371.4048l-37.6832 75.264-16.6912 33.4848-12.5952 29.2864C14.4384 467.6608 10.24 425.7792 10.24 384c0-275.968 225.792-501.76 501.76-501.76s501.76 225.792 501.76 501.76c0 41.7792-4.1984 83.6608-16.6912 125.44l-29.2864-58.5728zM461.824 492.7488l50.176 100.352 50.176-100.352 108.7488-16.6912-79.4624-79.4624 16.6912-108.7488-96.1536 54.3744-100.352-50.176 16.6912 108.7488-75.264 75.264L461.824 492.7488z m217.3952-430.6944L512-34.0992l-167.2192 96.1536v91.9552L512 57.856l167.2192 96.1536v-91.9552z"  horiz-adv-x="1024" />

    
    <glyph glyph-name="jingyanzhi" unicode="&#58970;" d="M511.793-121.49000000000001c-279.768 0-506.566 226.717-506.566 506.341 0 279.63 226.798 506.346 506.566 506.346 279.77 0 506.587-226.716 506.587-506.346 0-279.625-226.817-506.34-506.587-506.34z m0 886.104c-209.808 0-379.917-170.04-379.917-379.764 0-209.72 170.108-379.755 379.917-379.755 209.828 0 379.958 170.035 379.958 379.755 0 209.724-170.13 379.764-379.958 379.764z m150.6-428.688L697.88 128.84000000000003l-186.084 97.785L325.73 128.84000000000003l35.514 207.086-150.53 146.684 208.065 30.218 93.013 188.43 93.07-188.43 208.045-30.218-150.514-146.684z"  horiz-adv-x="1024" />

    
    <glyph glyph-name="xuanhuan" unicode="&#58888;" d="M490.678-2.40300000000002c21 79.798 275.094 138.597 350.692 302.393-18.9-10.5-39.899-18.9-60.898-25.2-92.398-25.199-167.997-16.799-226.795 2.1-73.499-65.098-264.594-98.697-256.194-260.393 8.4-197.396 388.49-113.398 388.49-113.398S463.38-99 490.679-2.40300000000002ZM748.972 127.79399999999998c-130.197-69.298-226.794-113.397-220.495-144.896 8.4-42 138.597-62.999 195.296-44.1 56.699 21 144.897 111.298 180.596 94.498 35.699-16.8 31.499-77.698-10.5-149.096 56.699 44.099 113.397 155.396 60.899 226.795-52.5 69.298-151.197 44.099-205.796 16.8ZM192.485 287.39c65.099 58.8 37.8 42 69.299 159.597 25.199 100.798 107.097 88.198 172.196 195.295s23.099 247.795 2.1 245.695c-29.4-4.2 25.199-54.599-29.4-178.496 6.3 48.299-4.2 86.098-29.4 79.798 25.2-69.298-44.098-163.796-140.696-214.195-111.297-56.699-52.499-98.698-90.298-151.197S85.388 350.39 70.688 339.89c-44.099 10.5-96.598-65.098-33.6-100.797 6.3 27.3 29.4 31.499 33.6-6.3 21-25.2 58.799-44.1 94.498-12.6-52.499 4.2-10.5 31.5 27.3 67.199Zm14.7 188.996c10.5 16.8 60.898 39.9 67.198 33.6 0 0-16.8-21-23.1-33.6-12.599-27.3-18.899-50.399-41.998-39.899-12.6 6.3-14.7 23.1-2.1 39.9ZM400.38 320.99c-73.498-25.2-117.597-2.1-132.297 41.999 0-44.1-27.299-151.197-113.397-178.496C255.484 125.69399999999996 320.582 291.59000000000003 400.38 320.99ZM123.187 562.4839999999999c18.9 65.099 119.697 88.198 102.897 178.496-16.8-96.598-88.198-83.998-121.797-163.796-31.5-77.698 10.5-151.197-31.5-220.495 63 90.298 21 98.698 50.4 205.795ZM307.982 476.386c-41.999-48.299-39.899-155.396 65.099-136.497s136.497 188.996 79.798 296.094c-23.1-81.899-102.897-111.298-144.897-159.597ZM604.076 640.182c-33.6-18.9-60.899-37.799-90.298-48.298 6.3-25.2 10.5-52.5 10.5-79.799 0-27.299-4.2-54.598-10.5-77.698-8.4-27.3-18.9-52.499-33.6-73.498 237.295-132.297 428.39 23.1 485.09 113.397-104.998-33.599-172.197-58.798-258.295-60.898 130.197 18.9 264.594 92.398 312.893 188.995-58.799 31.5-109.197 50.4-153.296 65.099 29.399 6.3 56.698 12.6 81.898 25.2-266.694 170.095-409.49 4.2-470.39-29.4 10.5-14.7 18.9-29.4 25.2-46.199 33.6 10.5 67.198 18.9 100.798 23.1Z"  horiz-adv-x="1028" />

    
    <glyph glyph-name="lishi" unicode="&#58960;" d="M264.9 235c-80.2 0-107.9-31.4-107.9-78.5S184.8 78 264.9 78c80.2 0 107.9 31.4 107.9 78.5S345.1 235 264.9 235z m0 0M850.8 643.5h-61.7c-9.3 0-15.4-6.3-15.4-15.7v-78.5h-30.8v110c0 9.4-6.2 15.7-15.4 15.7h-61.7c-9.2 0-15.4-6.3-15.4-15.7v-78.5h-30.8v78.5c0 9.4-6.2 15.7-15.4 15.7h-61.7c-9.3 0-15.4-6.3-15.4-15.7v-78.5h-30.8v47.1c0 9.4-6.2 15.7-15.4 15.7h-61.7c-9.2 0-15.4-6.3-15.4-15.7v-78.5H373V612c0 47.1-27.8 78.5-107.9 78.5-80.2 0-107.9-31.4-107.9-78.5v-377c24.7 22 58.6 31.4 107.9 31.4S348.4 257 373 235v31.4h30.8v-78.5c0-9.4 6.2-15.7 15.4-15.7h61.7c9.3 0 15.4 6.3 15.4 15.7v110H527v-78.5c0-9.4 6.2-15.7 15.4-15.7h61.7c9.2 0 15.4 6.3 15.4 15.7v78.5h30.8v-78.5c0-9.4 6.2-15.7 15.4-15.7h61.7c9.3 0 15.4 6.3 15.4 15.7v47.1h30.8V188c0-9.4 6.2-15.7 15.4-15.7h61.7c9.2 0 15.4 6.3 15.4 15.7V627.8c0.1 9.4-6.1 15.7-15.3 15.7zM403.6 297.9h-30.8V517.8h30.8v-219.9zM527 329.3h-30.8V549.2H527v-219.9z m123.3 0h-30.8V549.2h30.8v-219.9z m123.4-31.4h-30.8V517.8h30.8v-219.9z m0 0"  horiz-adv-x="1024" />

    
    <glyph glyph-name="icon-test" unicode="&#58932;" d="M512 96c-66.112 0-128.32 24.896-182.656 60.096l94.976 94.976A156.256 156.256 0 0 1 512 224c88.224 0 160 71.776 160 160a156.256 156.256 0 0 1-27.072 87.68l101.536 101.536C837.28 497.376 896 402.656 896 384c0-32-171.936-288-384-288m96 288a96 96 0 0 0-96-96c-14.784 0-28.64 3.616-41.088 9.664l127.424 127.424c6.048-12.448 9.664-26.304 9.664-41.088M128 384c0 32 171.936 288 384 288 66.112 0 128.32-24.896 182.656-60.096L277.536 194.784C186.72 270.624 128 365.344 128 384m664.064 234.816l91.328 91.328-45.248 45.248-97.632-97.632C673.472 703.296 595.456 736 512 736 265.248 736 64 452.992 64 384c0-39.392 65.728-148.416 167.936-234.816l-91.328-91.328 45.248-45.248 97.632 97.632C350.528 64.704 428.544 32 512 32c246.752 0 448 283.008 448 352 0 39.392-65.728 148.416-167.936 234.816M512 544c-88.224 0-160-71.776-160-160 0-15.328 2.848-29.856 6.88-43.872l58.592 58.592a95.616 95.616 0 0 0 79.808 79.808l58.592 58.592A157.76 157.76 0 0 1 512 544"  horiz-adv-x="1024" />

    
    <glyph glyph-name="cup" unicode="&#58912;" d="M891.99999969 823.99999969l-100.00000031 0c0 22.00000031-18 40.00000031-40.00000032 40.00000031L272 864c-22.00000031 0-40.00000031-18-40.00000031-40.00000031L132.00000031 823.99999969C87.99999969 823.99999969 51.99999969 787.99999969 51.99999969 744l0 0c0-232.00000031 138-396 319.99999969-432l0 0c1.99999969 0 4.00000031 0 6-1.99999969l0 0c6-1.99999969 12-1.99999969 18-1.99999968 43.99999969-31.99999969 73.99999969-106.00000031 73.99999968-193.99999969 0-18-1.99999969-34.00000031-4.00000031-49.99999969-40.00000031 0-73.99999969 0-91.99999969 0C332 64.00000031000002 332 24 332 24l0-40.00000031-40.00000031 0c-22.00000031 0-40.00000031-18-40.00000032-40.00000032s18-40.00000031 40.00000032-40.00000031l40.00000031 0 360 0 40.00000031 0c22.00000031 0 40.00000031 18 40.00000032 40.00000031s-18 40.00000031-40.00000032 40.00000032l-40.00000031 0 0 40.00000031c0 0 0 40.00000031-43.99999969 40.00000031-16.00000031 0-52.00000031 0-91.99999968 0-1.99999969 16.00000031-4.00000031 31.99999969-4.00000032 49.99999969 0 88.00000031 30 162 73.99999969 193.99999969 6 0 12 1.99999969 18 1.99999968l0 0c1.99999969 0 4.00000031 0 6 1.99999969l0 0c181.99999969 36 319.99999969 199.99999969 319.99999969 432l0 0C972.00000031 787.99999969 936.00000031 823.99999969 891.99999969 823.99999969zM132.00000031 744l100.00000031 0 0-19.99999969c0-124.00000031 28.00000031-228 72-304.00000031C200 475.99999969 132.00000031 592.00000031 132.00000031 744zM591.99999969 484.00000031l-160.00000031 0-1e-8 40.00000032c22.00000031 0 40.00000031 18 40.00000032 40.00000031L471.99999969 684c0 12-7.99999969 19.99999969-19.99999969 19.99999969L452 744l100.00000031 19.99999969 0-199.99999969c0-22.00000031 18-40.00000031 40.00000032-40.00000031l0 0L591.99999969 484.00000031zM720.00000031 420c43.99999969 76.00000031 72 180 72 304.00000031L792.00000031 744l100.00000031 0C891.99999969 592.00000031 824 475.99999969 720.00000031 420z"  horiz-adv-x="1024" />

    
    <glyph glyph-name="qita" unicode="&#58896;" d="M441.687 348.844H125.281c-19.406 0-35.156-15.75-35.156-35.156v-316.406c0-19.406 15.75-35.156 35.156-35.156h316.406c19.406 0 35.156 15.75 35.156 35.156V313.688c0 19.406-15.703 35.156-35.156 35.156z m-21.093-330.469H146.375V292.641h274.219v-274.266z m319.64 400.781c106.828 0 193.359 86.578 193.359 193.359S847.062 805.874 740.234 805.874c-106.781 0-193.359-86.578-193.359-193.359 0-106.828 86.578-193.359 193.359-193.359z m0 330.469c75.609 0 137.156-61.5 137.156-137.109s-61.5-137.109-137.156-137.109c-75.563 0-137.109 61.5-137.109 137.109 0 75.563 61.547 137.109 137.109 137.109z m158.204-400.781H582.032c-19.406 0-35.156-15.75-35.156-35.156v-316.406c0-19.406 15.75-35.156 35.156-35.156h316.406c19.406 0 35.156 15.75 35.156 35.156V313.688c0 19.406-15.75 35.156-35.156 35.156z m-21.047-330.469H603.125V292.641h274.266v-274.266z m-435.704 787.5H125.281c-19.406 0-35.156-15.75-35.156-35.156v-316.406c0-19.406 15.75-35.156 35.156-35.156h316.406c19.406 0 35.156 15.75 35.156 35.156V770.719c0 19.406-15.703 35.156-35.156 35.156z m-21.093-330.469H146.375V749.625h274.219v-274.219z"  horiz-adv-x="1024" />

    


  </font>
</defs>
</svg>
